<?xml version="1.0" encoding="utf-8"?>
<!-- Uploaded to: SVG Repo, www.svgrepo.com, Generator: SVG Repo Mixer Tools -->
<!DOCTYPE svg PUBLIC "-//W3C//DTD SVG 1.1//EN" "http://www.w3.org/Graphics/SVG/1.1/DTD/svg11.dtd">
<svg fill="#000000" width="800px" height="800px" viewBox="0 0 1000 1000" version="1.1" xmlns="http://www.w3.org/2000/svg" xmlns:xlink="http://www.w3.org/1999/xlink"  enable-background="new 0 0 1000 1000" xml:space="preserve">

<g>
<g transform="translate(0.000000,511.000000) scale(0.100000,-0.100000)">
<path d="M4911.8,3613.3c-209.4-137.9-237.5-378-120-973.1c99.6-490.4,120-725.3,81.7-878.6c-35.8-143-2.6-227.3,107.3-273.3c94.5-40.9,191.5,5.1,247.7,117.5c69,135.4,48.5,574.7-46,1039.5c-102.2,500.6-104.7,605.3-17.9,679.4c89.4,79.2,86.8,212-2.6,283.5C5077.8,3674.5,5006.3,3674.5,4911.8,3613.3z"/>
<path d="M3647.5,3207.1c-196.7-107.3-222.2-293.7-114.9-863.3c51.1-273.3,63.9-398.4,53.6-549.1c-17.9-222.2,10.2-288.6,132.8-316.7c260.5-56.2,319.3,252.9,181.3,973.1l-76.6,403.5l63.8,66.4C4053.6,3094.8,3862.1,3322.1,3647.5,3207.1z"/>
<path d="M6201.6,3207.1c-196.7-104.7-224.8-314.1-114.9-876c51.1-268.2,61.3-385.7,48.5-541.5c-12.8-189-10.2-201.8,51.1-263.1c53.6-53.6,81.7-63.9,148.1-51.1c222.2,43.4,250.3,314.1,107.3,1029.3l-69,339.7l66.4,79.2c99.6,117.5,86.8,227.3-38.3,291.1C6311.4,3263.3,6306.3,3263.3,6201.6,3207.1z"/>
<path d="M868.7,1337.6c-99.6-40.9-117.5-114.9-102.2-418.9c91.9-1859.4,1504.4-3442.9,3363.7-3774.9c385.7-66.4,1001.2-71.5,1366.4-7.7c799.4,137.9,1524.8,492.9,2107.1,1026.7l140.5,130.2l536.4,10.2c457.2,10.2,561.9,20.4,704.9,66.4c342.3,112.4,610.4,344.8,773.9,671.7c120,240.1,150.7,449.5,137.9,975.6c-7.7,388.2-15.3,454.6-66.4,564.5c-137.9,306.5-401,492.9-727.9,523.6c-176.2,15.3-183.9,17.9-191.6,84.3c-5.1,38.3-38.3,94.5-74.1,122.6c-66.4,51.1-89.4,51.1-3989.4,48.5C2651.4,1360.6,899.4,1350.3,868.7,1337.6z M9220.5,688.9c107.3-43.4,237.5-194.1,275.8-316.7c17.9-63.9,25.5-252.9,17.9-531.2c-7.7-421.4-10.2-434.2-89.4-602.8c-99.6-214.5-247.8-362.7-459.7-459.7c-153.2-74.1-191.6-79.2-523.6-91.9c-303.9-10.2-355-7.7-337.1,23c12.8,20.4,79.2,122.6,150.7,227.3c278.4,424,480.2,919.5,577.2,1430.3c30.7,160.9,58.8,309.1,63.8,326.9C8908.9,734.8,9115.8,734.8,9220.5,688.9z"/>
<path d="M202.1-2570.1c-74.1-30.6-117.5-130.2-97.1-219.6c28.1-104.7,360.1-418.9,531.2-500.6c319.3-155.8,91.9-148.1,4209.1-148.1c3591,0,3777.5,2.6,3938.4,48.5c232.4,63.8,429.1,186.4,623.2,393.3c189,199.2,209.4,280.9,97.1,393.3c-97.1,97.1-191.6,66.4-360.1-120c-94.5-104.7-191.6-176.2-309-235l-171.1-84.3H4832.6H1001.5l-148.1,69c-97.1,46-209.4,132.8-324.4,250.3C352.8-2544.6,311.9-2526.7,202.1-2570.1z"/>
</g>
</g>
</svg>